<svg xmlns="http://www.w3.org/2000/svg" width="162.5" height="390.427" viewBox="0 0 162.5 390.427">
  <g id="human" transform="translate(0 0.007)">
    <g id="Слой_1" data-name="Слой 1" transform="translate(0 -0.007)">
      <g id="_1" data-name="1" transform="translate(0 0)">
        <g id="CHAIR" transform="translate(33.492 222.147)">
          <line id="Line_4" data-name="Line 4" x2="48.726" transform="translate(34.636 125.238)" fill="none" stroke="#424d76" stroke-linecap="round" stroke-miterlimit="10" stroke-width="5"/>
          <line id="Line_5" data-name="Line 5" x2="85.634" y2="139.347" transform="translate(17.74 18.37)" fill="none" stroke="#424d76" stroke-linecap="round" stroke-miterlimit="10" stroke-width="5"/>
          <line id="Line_6" data-name="Line 6" x1="85.634" y2="139.347" transform="translate(14.623 18.37)" fill="none" stroke="#424d76" stroke-linecap="round" stroke-miterlimit="10" stroke-width="5"/>
          <path id="Path_23" data-name="Path 23" d="M225.472,719.539c0,1.187-2.659,2.3-7.33,3.272-10.051,2.088-29.425,3.5-51.668,3.5s-41.617-1.415-51.662-3.506c-4.675-.969-7.33-2.085-7.33-3.273,0-3.74,26.414-6.776,59-6.776S225.472,715.8,225.472,719.539Z" transform="translate(-107.474 -712.76)" fill="#fff" stroke="#ffb000" stroke-miterlimit="10" stroke-width="5"/>
          <path id="Path_24" data-name="Path 24" d="M225.458,734.51v6.545c0,3.74-26.417,6.776-59,6.776s-59-3.033-59-6.776V734.51c0,1.187,2.659,2.3,7.33,3.273,10.051,2.088,29.422,3.5,51.668,3.5s41.617-1.415,51.668-3.506C222.8,736.813,225.458,735.7,225.458,734.51Z" transform="translate(-107.46 -727.731)" fill="#ffd880" stroke="#fdac25" stroke-miterlimit="10" stroke-width="5"/>
        </g>
        <g id="CHARACTER">
          <g id="LEGS" transform="translate(0 180.757)">
            <path id="Path_25" data-name="Path 25" d="M222.659,1064.52c2.609,1.49,8.191,1.655,9.185,5.479s-4.469,18.965-3.6,24.31.792,16.758-8.066,17.993c-9.8,1.365-17.248-1.985-17.248-5.71s5.71-7.951,6.567-14.278,3.117-19.978,3.117-19.978Z" transform="translate(-139.683 -913.497)" fill="#fdac25"/>
            <path id="Path_26" data-name="Path 26" d="M226.12,1114.482s4.136-3.584,10.478,0" transform="translate(-155.645 -946.791)" fill="none" stroke="#fff" stroke-linecap="round" stroke-linejoin="round" stroke-width="4"/>
            <path id="Path_27" data-name="Path 27" d="M223.12,1128.482s4.136-3.584,10.478,0" transform="translate(-153.58 -956.428)" fill="none" stroke="#fff" stroke-linecap="round" stroke-linejoin="round" stroke-width="4"/>
            <path id="Path_28" data-name="Path 28" d="M220.12,1142.482s4.136-3.584,10.478,0" transform="translate(-151.515 -966.064)" fill="none" stroke="#fff" stroke-linecap="round" stroke-linejoin="round" stroke-width="4"/>
            <path id="Path_29" data-name="Path 29" d="M349.766,1124.82c-1.658,2.425-11.22,8.381-10.718,11.111s9.306,10.672,9.927,14.888-.246,10.547,3.475,12.411,23.453,1.985,26.679,0-.249-8.315-3.724-9.68-12.778-16.874-12.242-26.43Z" transform="translate(-233.364 -955.004)" fill="#fdac25"/>
            <path id="Path_30" data-name="Path 30" d="M406.428,1157.232s-4.136-3.584-10.478,0" transform="translate(-272.545 -976.217)" fill="none" stroke="#fff" stroke-linecap="round" stroke-linejoin="round" stroke-width="4"/>
            <path id="Path_31" data-name="Path 31" d="M411.428,1171.232s-4.136-3.584-10.478,0" transform="translate(-275.986 -985.854)" fill="none" stroke="#fff" stroke-linecap="round" stroke-linejoin="round" stroke-width="4"/>
            <path id="Path_32" data-name="Path 32" d="M417.428,1185.232s-4.136-3.584-10.478,0" transform="translate(-280.116 -995.491)" fill="none" stroke="#fff" stroke-linecap="round" stroke-linejoin="round" stroke-width="4"/>
            <path id="Path_33" data-name="Path 33" d="M57.113,582.1S0,604.839,0,624.4c0,34.885,48.7,99.111,58.672,98.148s16.677-9,16.294-13.218-18.388-58.482-31.254-76.886c0,0,39.308-9.973,44.484-10.16s31.824,14.187,32.208,14.761-13.776,39.445-5.56,90.1c1.15,7.094,22.621,8.627,24.731,5.753s25.868-102.95,22.621-111-30.544-30.085-47.04-38.868C103.268,576.708,57.113,582.1,57.113,582.1Z" transform="translate(0 -579.958)" fill="#424d76"/>
            <path id="Path_34" data-name="Path 34" d="M389.84,1097.317c-.355,1.1-2.041,6.261-3.188,8.995-1.1,2.609-14.764,1.724-13.4-2.3a31.88,31.88,0,0,0,1.159-9.419A38.446,38.446,0,0,0,389.84,1097.317Z" transform="translate(-256.854 -934.195)" fill="#f2a98a"/>
            <path id="Path_35" data-name="Path 35" d="M390.326,1073.988l3.818-9.095s-12.4,1.54-20.664-4.173l.312,10.2S382.387,1074.832,390.326,1073.988Z" transform="translate(-257.078 -910.882)" fill="#6562cf"/>
            <path id="Path_36" data-name="Path 36" d="M220.892,1030.09s4.519,9.366,5.635,10.731-5.086,8.312-10.048,7.817l-7.929-10.687S217.055,1036.361,220.892,1030.09Z" transform="translate(-143.551 -889.798)" fill="#f2a98a"/>
            <path id="Path_37" data-name="Path 37" d="M204.039,1003.73l3.191,8.216s-4.952,6.872-13.277,8.172l-5.7-5.872S198.931,1012.958,204.039,1003.73Z" transform="translate(-129.578 -871.654)" fill="#6562cf"/>
          </g>
          <g id="T-SHIRT" transform="translate(17.107 64.523)">
            <path id="Path_38" data-name="Path 38" d="M148.839,208.259c5.043,3.706,18.744,10.185,27.271,16.154,6.879,4.815,13.015,25.869,13.015,25.869a57.313,57.313,0,0,1-25.666,13.6,337.048,337.048,0,0,0-12.641,61.486s-29.5,10.908-56.122,0c0,0-10.728-60.719-12.068-61.087S61.41,257.811,54.89,248.04c0,0,7.689-22.15,18.17-26.492,11.388-4.719,26.564-11.186,31.843-14.025C107.6,206.052,148.839,208.259,148.839,208.259Z" transform="translate(-54.89 -207.017)" fill="#eaeaff"/>
            <path id="Path_39" data-name="Path 39" d="M79.271,246.49,56.912,276.653c-.243-.29-.477-.583-.692-.882l21.1-28.462Z" transform="translate(-55.805 -234.188)" fill="#fff"/>
            <path id="Path_40" data-name="Path 40" d="M99.607,231.57,70.731,270.529c-.29-.221-.573-.443-.851-.667l27.739-37.425Z" transform="translate(-65.208 -223.918)" fill="#fff"/>
            <path id="Path_41" data-name="Path 41" d="M121.7,215.59,86.675,262.83c-.312-.181-.623-.362-.935-.552l33.906-45.741h0C120.366,216.207,121.04,215.892,121.7,215.59Z" transform="translate(-76.125 -212.918)" fill="#fff"/>
            <path id="Path_42" data-name="Path 42" d="M142.959,207.07l-39.065,52.691c-.33-.153-.661-.312-.994-.471l38.678-52.183C142.014,207.092,142.473,207.076,142.959,207.07Z" transform="translate(-87.937 -207.054)" fill="#fff"/>
            <path id="Path_43" data-name="Path 43" d="M162.885,207.079l-40.829,55.094L121,261.764l40.557-54.7Z" transform="translate(-100.396 -207.047)" fill="#fff"/>
            <path id="Path_44" data-name="Path 44" d="M183.267,207.627,141.011,264.61c-.215-.065-.589-.181-1.091-.343l42.019-56.677h0C182.379,207.6,182.815,207.612,183.267,207.627Z" transform="translate(-113.419 -207.412)" fill="#fff"/>
            <path id="Path_45" data-name="Path 45" d="M196.849,208.451l-47.458,64.007c-.1-.486-.2-.954-.312-1.4l46.454-62.645Z" transform="translate(-119.724 -207.976)" fill="#fff"/>
            <path id="Path_46" data-name="Path 46" d="M207.75,209.389,154.664,281c-.1-.483-.19-.96-.284-1.427l52.071-70.238Z" transform="translate(-123.372 -208.609)" fill="#fff"/>
            <path id="Path_47" data-name="Path 47" d="M218.433,210.482l-58.756,79.254c-.094-.48-.187-.963-.277-1.44l57.737-77.877Z" transform="translate(-126.827 -209.36)" fill="#fff"/>
            <path id="Path_48" data-name="Path 48" d="M227.556,216.854l-63,84.97c-.087-.483-.178-.966-.268-1.449l62.334-84.085C226.923,216.474,227.235,216.661,227.556,216.854Z" transform="translate(-130.193 -213.4)" fill="#fff"/>
            <path id="Path_49" data-name="Path 49" d="M236.152,226.533l-66.744,90.044c-.09-.48-.178-.963-.268-1.452L235.2,226Q235.67,226.271,236.152,226.533Z" transform="translate(-133.532 -220.084)" fill="#fff"/>
            <path id="Path_50" data-name="Path 50" d="M244.7,235.967l-70.587,95.209c-.084-.477-.171-.963-.262-1.455h0l69.9-94.28Z" transform="translate(-136.774 -226.582)" fill="#fff"/>
            <path id="Path_51" data-name="Path 51" d="M253.2,245.53,178.812,345.887c-.084-.464-.168-.935-.262-1.462L252.263,245Z" transform="translate(-140.009 -233.162)" fill="#fff"/>
            <path id="Path_52" data-name="Path 52" d="M262.805,255.45,186.038,359.008,185,358.593,261.9,254.87Z" transform="translate(-144.449 -239.956)" fill="#fff"/>
            <path id="Path_53" data-name="Path 53" d="M280.822,266.691,205.339,368.485c-.374-.094-.745-.2-1.119-.312L280.049,265.89C280.3,266.146,280.557,266.407,280.822,266.691Z" transform="translate(-157.678 -247.541)" fill="#fff"/>
            <path id="Path_54" data-name="Path 54" d="M298.527,283.125,225.98,380.989c-.4-.059-.8-.125-1.2-.2l73.164-98.69C298.141,282.434,298.334,282.779,298.527,283.125Z" transform="translate(-171.831 -258.699)" fill="#fff"/>
            <path id="Path_55" data-name="Path 55" d="M295.348,391.12c-.181.58-.5,1.621-.935,3.07h0l-46.392,62.589c-.427-.028-.851-.056-1.281-.094Z" transform="translate(-186.946 -333.741)" fill="#fff"/>
            <path id="Path_56" data-name="Path 56" d="M424.914,302.481l-19.136,25.812c-.549.153-1.106.312-1.667.436l20.3-27.389C424.58,301.726,424.749,302.107,424.914,302.481Z" transform="translate(-295.269 -271.943)" fill="#fff"/>
            <path id="Path_57" data-name="Path 57" d="M307.044,442.73c-.221.873-.439,1.777-.661,2.7h0l-34.841,47h0c-.452,0-.9.019-1.362.022Z" transform="translate(-203.081 -369.266)" fill="#fff"/>
            <path id="Path_58" data-name="Path 58" d="M449.683,323.539l-11.261,15.2c-.667.33-1.356.658-2.073.979l12.9-17.4C449.4,322.738,449.543,323.155,449.683,323.539Z" transform="translate(-317.461 -286.384)" fill="#fff"/>
            <path id="Path_59" data-name="Path 59" d="M320.961,489.35q-.252,1.225-.5,2.493h0l-23.821,32.133c-.483.053-.966.106-1.459.153Z" transform="translate(-220.289 -401.356)" fill="#fff"/>
            <path id="Path_60" data-name="Path 60" d="M336.96,532.42c-.122.764-.246,1.53-.365,2.3L323.558,552.3c-.508.1-1.032.2-1.558.312Z" transform="translate(-238.75 -431.002)" fill="#fff"/>
          </g>
          <g id="HANDS" transform="translate(6.102 108.934)">
            <g id="RIGHT" transform="translate(93.798 0.745)">
              <path id="Path_61" data-name="Path 61" d="M381.143,400.34c-.7,13.09-25.532,25.245-38.625,30.762-.433,2.711-2.213,3.9-5.635,4.781-7.134,1.839-6.464,6.545-6.832,7.443-.577,1.431-7.614,3.061-9.306,1.87-1.007-.714,1.836-9.677,3.453-12.828,1.007-1.96,7.751-5.672,12.174-7.271,0,0,22.44-27.2,25.513-28.733,0,0-8.3-22.752-11.772-30.939-.5-1.175-.894-2.048-1.153-2.512,0,0,12.467-3.74,20.9-11,0,0,.764,1.9,1.889,5.037C375.137,366.378,381.857,386.967,381.143,400.34Z" transform="translate(-320.534 -351.907)" fill="#f2a98a"/>
              <path id="Path_62" data-name="Path 62" d="M434.512,356.937c-1.745,1.854-7.05,5.872-21.636,8.477-.5-1.172-.9-2.048-1.156-2.512,0,0,12.467-3.74,20.9-11C432.624,351.9,433.384,353.8,434.512,356.937Z" transform="translate(-383.3 -351.9)" fill="#efa07e"/>
            </g>
            <g id="LEFT">
              <path id="Path_63" data-name="Path 63" d="M84.18,443.243c-1.892.835-7.542-.729-8.06-1.558s-1.247-5.984-6.829-7.754c-4-1.268-5.81-2.531-5.741-6.473-11.616-3.968-42.505-15.736-43.9-29.1-.935-8.914,8.387-34.411,12.28-44.569,1.019-2.652,1.664-4.261,1.664-4.261,8.979,7.48,20.632,11.382,20.632,11.382l-.963,2.64L42.017,394.339c5.118,1.942,23.755,24.831,26.66,28.424,6.056,1.172,12.542,5.383,13.3,7.651C82.771,432.792,86.127,442.379,84.18,443.243Z" transform="translate(-19.58 -349.524)" fill="#f2a98a"/>
              <path id="Path_64" data-name="Path 64" d="M60.864,349.51C69.84,356.99,81.5,360.892,81.5,360.892l-.963,2.637c-6.155-.972-16.266-3.35-21.334-9.761C60.216,351.118,60.864,349.51,60.864,349.51Z" transform="translate(-46.852 -349.51)" fill="#efa07e"/>
            </g>
          </g>
          <g id="LAPTOP" transform="translate(25.066 144.514)">
            <path id="Path_65" data-name="Path 65" d="M186.073,530.355H95.83l-15.191-59.71A5.464,5.464,0,0,1,85.9,463.67H196.012a5.464,5.464,0,0,1,5.252,6.975Z" transform="translate(-80.426 -463.67)" fill="#fff" stroke="#6562cf" stroke-miterlimit="10" stroke-width="7"/>
            <path id="Path_66" data-name="Path 66" d="M190.214,536.1H105.441L91.169,480c-.935-3.282-1.6-7.168,1.817-7.168H202.669c3.413,0,2.761,3.893,1.817,7.168Z" transform="translate(-87.303 -469.975)" fill="#6562cf"/>
            <path id="Path_67" data-name="Path 67" d="M262.278,570.446H251.959a1.558,1.558,0,0,1-1.508-1.175l-1.231-6.648a.717.717,0,0,1,.689-.913h14.421a.717.717,0,0,1,.689.913l-1.237,6.657A1.558,1.558,0,0,1,262.278,570.446Z" transform="translate(-196.593 -531.154)" fill="none" stroke="#fff" stroke-linejoin="round" stroke-width="6"/>
          </g>
          <g id="HEAD" transform="translate(61.162)">
            <path id="NECK" d="M247.567,152s-.511,11.22,11.75,18.388A158.282,158.282,0,0,0,237.1,190.61s-10.784-13.187-21.708-20.985c0,0,10.725-8.431,10.725-17.622Z" transform="translate(-209.422 -104.624)" fill="#efa07e"/>
            <path id="HEAD-2" data-name="HEAD" d="M261.888,95.27a50.577,50.577,0,0,0-4.525,6.813c-1.907,10.344-8.415,17.189-16.665,17.189-7.15,0-11.981-8.016-14.206-15.468h0a3.4,3.4,0,0,1-.131-.415c-.552-2.054-3.541-6.14-5.043-8.1a1.378,1.378,0,0,1,.415-2.032c1.833-1.05,2.783-.287,3.282.711-.265-7.452.044-15.272,4.382-15.315,4.987-.047,21.571-.374,24.444.586,2.472.823,4.1,4.285,4.108,15.353.39-1.247,1.325-2.6,3.525-1.334a1.378,1.378,0,0,1,.415,2.016Z" transform="translate(-213.308 -54.071)" fill="#f2a98a"/>
            <g id="HAIR">
              <path id="Path_68" data-name="Path 68" d="M247.8,27.631c-3.3,4.145-7.2,13.741-7.2,13.741s1.418-14.854-4.329-14.692c-2.733.075-8.231,3.905-13.988,3.282-4.781-.517-10.753-7.006-13.212-2.765-1.362,3.251-1.265,8.353-1.06,13.6a40.93,40.93,0,0,0-6.171-13.854c-3.5-1.817-6.252-5.707-5.46-9.662,1.346-6.692,6.5-6.318,6.5-6.318,8.7.9,3.622-4.17,14.165-8.96s22.537-.256,23.568,5.517c.711,3.958,3.145,1.976,6.956,3.74C252.927,13.761,251.674,22.747,247.8,27.631Z" transform="translate(-196.241 0.007)" fill="#fdac25"/>
              <path id="Path_69" data-name="Path 69" d="M260.88,91.473c14.761,1.87,16.225-6.143,22.58-5.174" transform="translate(-240.734 -59.344)" fill="none" stroke="#ffb000" stroke-miterlimit="10" stroke-width="3"/>
            </g>
          </g>
        </g>
      </g>
    </g>
  </g>
</svg>
